<?xml version="1.0" encoding="UTF-8"?>
<svg id="_레이어_1" data-name="레이어_1" xmlns="http://www.w3.org/2000/svg" version="1.1" xmlns:xlink="http://www.w3.org/1999/xlink" viewBox="88 763 856 1096">
  <!-- Generator: Adobe Illustrator 30.2.0, SVG Export Plug-In . SVG Version: 2.1.1 Build 105)  -->
  <defs>
    <style>
      .st0 {
        fill: #a02f2b;
      }

      .st1 {
        fill: #45413c;
      }

      .st2 {
        fill: #121210;
      }

      .st3 {
        fill: #ebd8cf;
      }

      .st4 {
        fill: #4e4a45;
      }

      .st5 {
        fill: #7e7b72;
      }

      .st6 {
        fill: #79756b;
      }

      .st7 {
        fill: #f1eee3;
      }

      .st8 {
        fill: none;
      }

      .st9 {
        clip-path: url(#clippath-1);
      }

      .st10 {
        fill: #35342f;
      }

      .st11 {
        fill: #21201e;
      }

      .st12 {
        fill: #151613;
      }

      .st13 {
        fill: #cf9891;
      }

      .st14 {
        fill: #262522;
      }

      .st15 {
        fill: #3a3834;
      }

      .st16 {
        fill: #272722;
      }

      .st17 {
        fill: #2c2b27;
      }

      .st18 {
        fill: #302f2b;
      }

      .st19 {
        fill: #9b9890;
      }

      .st20 {
        fill: #211f1c;
      }

      .st21 {
        fill: #992928;
      }

      .st22 {
        fill: #201f1c;
      }

      .st23 {
        fill: #3d3a36;
      }

      .st24 {
        fill: #5e5a54;
      }

      .st25 {
        fill: #67645b;
      }

      .st26 {
        clip-path: url(#clippath);
      }

      .st27 {
        fill: #a93a33;
      }
    </style>
    <clipPath id="clippath">
      <rect class="st8" x="107.97" y="783.45" width="815.65" height="1055.55"/>
    </clipPath>
    <clipPath id="clippath-1">
      <rect class="st8" x="107.97" y="783.45" width="815.65" height="1055.55"/>
    </clipPath>
  </defs>
  <g id="Logo">
    <g class="st26">
      <polygon class="st7" points="360.62 1138.17 360.25 1139.35 360.98 1139.71 361.44 1138.77 361.39 1137.81 360.62 1138.17"/>
      <g class="st9">
        <path class="st6" d="M826.63,1145.62l-.43-.51c.81-1.07,1.86-1.84,3.32-2.19-.79,1.28-1.73,2.2-2.89,2.69"/>
        <polygon class="st16" points="767.56 1096.31 767.44 1097.56 765 1097.46 766.07 1096.58 767.56 1096.31"/>
        <path class="st21" d="M780.32,1266.09l.41-1.34c1.65-.08,2.23-1.12,1.96-2.59-.05-1.38.68-2.6,1.64-3.04l2.55,1.39,2.26.11,3.41-1.04,2.08.5,1.58,3.52.13,2.42,1.92.68,1.62-1.66.27-1.38-1.14-.94-.3-4.62.07-4.93-.12-9.24-1.1-1.04-3.13,1.12-.75-.08-2.98-1.08-.77-3.42,2.46-.26,8.16-.02,1.54.25.47,1.52-.19,4.96.41,4.25.09,2.4.74,3.96,1.56-.97,1.55-1.86.26-2.76-.8-1.98-.57-11.19-1.21-1.51-1.79.92-2.73-.02-4.33-.24-1.55-.21-.39-1.88,4.28.25,3.36.11,1.23-.32-.1-1.49-4.94-.58-2.75-.36-.05-1.38,1.48-.69,6.98.06-.18-2.55-3.17.06-5.09-.31-.44-2.39,2.38-.77,3.09.99,1.8-.03,1.1-1.42-.25-4.62-2.78-.38-.47,3.06h-4.24s-.54-2.43-.54-2.43l-1.55-3.29-1.9,1.8-.09,3.87-6.23.1-3.58-.92c-.27.5-.92,2.16-1.25,3.16l.33,4.6,4.5.93,8.53.16.56,1.44-1.06,1.02-4.93-.36-4.49-.65c-.54.09-1.37.59-2.03,1.21.2.66.88,1.35,1.5,1.54l9.17.48.78,1.06-.68.86-9.14-.45-3.68-.38-1.82-.05.25,2.09,4.06.17,1.61.74,5.33.26-1.13,4.13-3.41-.52-2.41-.08-2.13.5-.19,4.04.19,3.03-.09,4.85-.13,5.48-.18,2.45c-.64-.23-1.38-.89-1.83-1.58l-1.58-2.04-.06-.61-.51-3.29-.16-3.46.02-.61.65-.39-.22-4.86-.46-1.37-.45-2.13-.4-6.3-.04-1.53.43-4.54.47-1.33.05-4.12.64-1.47,1.32-2.42,1.69-3.08,3.51-3.6,2.99-1.42,3.19-1.3,2.97-.33,5.56,1.32,1.35.97,3.41,2.07,1.1.68,3.34,4.75,1.64,4.23.42,2.8-.21,3.88.52,3.67-.03,4.9.11,8.33.44,1.97-.27,3.17-1.94,6.17-2.77,4.64-2.62,3.23-2.25,1.42-3.09,1.3-3.53.94-4.82-1.1-1.15-.34-3.25-1.25-2.85-2.74Z"/>
        <path class="st3" d="M793.69,1243.91l-.3,1.34-1.88-.13-1.16,1.62,1.43,1.18,2.6.29,1.5-.78-.4-1.28-1.28-1.26.25-.91,3.13-1.12,1.1,1.04.12,9.24-.07,4.93.3,4.62,1.14.94-.27,1.38-1.62,1.66-1.92-.68-.13-2.42-1.58-3.52-2.08-.5-3.41,1.04-2.26-.11-2.55-1.39c-.96.44-1.69,1.66-1.64,3.04.27,1.47-.31,2.51-1.96,2.59l-.41,1.34c-.18.07-.32-.42-.66-1.87l-2.09-.78-1.97-4.17,1.58,2.04c.45.69,1.2,1.34,1.83,1.58l1.1-1.02-.92-1.42.13-5.48.09-4.85-.19-3.03.19-4.04,2.13-.5,2.41.08,3.41.51,1.13-4.12-5.33-.26-1.61-.74-4.06-.17-.25-2.09,1.82.05,3.68.38,9.14.45.68-.86-.78-1.07-9.17-.48c-.62-.19-1.29-.88-1.5-1.54.66-.63,1.49-1.12,2.03-1.21l4.49.65,4.93.36,1.06-1.02-.56-1.44-8.53-.16-4.5-.93-.33-4.6c.33-1,.98-2.65,1.25-3.16l3.58.92,6.23-.1.09-3.87,1.9-1.8,1.55,3.3.54,2.44h4.24s.47-3.06.47-3.06l2.78.38.25,4.62-1.1,1.42-1.8.03-3.09-.99-2.38.77.44,2.38,5.09.31,3.17-.06.18,2.55-6.98-.06-1.48.69.05,1.38,2.75.36,4.94.58.1,1.49-1.23.32-3.36-.11-4.28-.25.39,1.88,1.55.21,4.33.24,2.73.02,1.79-.92,1.21,1.51.57,11.19.8,1.98-.26,2.76-1.55,1.86-1.56.97-.74-3.96-.09-2.4-.41-4.24.19-4.96-.47-1.52-1.54-.25-8.16.02-2.46.26.77,3.42,2.98,1.08ZM789.73,1227.73c.78-.03,1.57-.81,1.81-1.9l-1.88-1.12-6.61.24.52,2.74,6.16.04ZM788.78,1247.81l-.14-2.63-4.72-.36-1.64.15-.26,2.26,6.76.57ZM789.03,1251.45l-1.04-1.75h-4.71s-.97.7-.97.7l.15,1.54,4.18.3,2.4-.79ZM795.5,1252.58l-.14-1.89-1.56-.75-4.08-.12.06,2.07,1.51.45,4.21.24ZM792.57,1256.74l1.14-.85-.73-1.54-6.32-.49-3.18.52-.37,2.33c.97.28,1.76.36,2.68.25l6.78-.22Z"/>
        <polygon class="st3" points="775.54 1258.65 774.8 1257.74 774.44 1255.39 774.11 1252.04 774.87 1251.91 775.03 1255.36 775.54 1258.65"/>
        <polygon class="st27" points="793.69 1243.91 794.44 1243.99 794.19 1244.91 795.47 1246.16 795.87 1247.44 794.37 1248.22 791.78 1247.94 790.35 1246.75 791.51 1245.13 793.39 1245.26 793.69 1243.91"/>
        <polygon class="st13" points="779.01 1262.88 779.18 1260.43 780.11 1261.85 779.01 1262.88"/>
        <path class="st27" d="M792.57,1256.74l-6.78.22c-.92.12-1.71.03-2.68-.25l.37-2.33,3.18-.52,6.32.49.73,1.54-1.14.85Z"/>
        <path class="st0" d="M789.73,1227.73l-6.16-.04-.51-2.74,6.61-.24,1.88,1.12c-.24,1.08-1.02,1.87-1.81,1.9"/>
        <polygon class="st27" points="788.78 1247.81 782.02 1247.24 782.28 1244.98 783.91 1244.83 788.64 1245.18 788.78 1247.81"/>
        <polygon class="st27" points="789.03 1251.45 786.63 1252.24 782.45 1251.94 782.3 1250.4 783.28 1249.72 787.99 1249.7 789.03 1251.45"/>
        <polygon class="st27" points="795.5 1252.58 791.29 1252.34 789.78 1251.9 789.72 1249.82 793.8 1249.95 795.36 1250.69 795.5 1252.58"/>
        <path class="st14" d="M562.47,1150.53l1.5-.07.31.64-.32,2.32-2.01,2.72-1.44,1.82-3.03,3.33c.91.63,1.18.83,1.1.77l-3.09,2.41-4.02,3.01-3.3.8-2.32,1.35-2.95.77-3.2-.39-1.31-.65-2.86-3.1c-2.12.03-3.09-1.53-3.42-3.2l-.66-1.91-.43-3.2-1.31-3.62.47-6.85-.64-1.75-.6-1.22.23-7.35.88-4.2.71-4.94,1.66-7.36.66-3.36-2.36,1.57-2.58,2.93-2.63,3.11-1.77,2.14c-.93.44-1.63,1.55-1.86,2.83l-1.87,3.11c-.5.85-.89,1.87-1.12,2.99l-2.97,5.55-1.71,3.15-3.02,5.51-1.2,3.28c-1.26,2.95-2.15,5.99-2.63,9.33l-.49,2.56-1.95,1.69-1,1.33-3.06.81-1.89-1.67c-.63-1.25-1.43-2.24-3.31-2.24-.81-.87-1.6-2.19-2.26-3.73l-1.66-1.93-1.81-3.44.2-5.54.8-2.9.45-1.88-.31-1.35,1.02-2.38.39-5.43.32-4.37.6-6.07.68-1.8.57-4.35.3-2.43.43-5.55c.18-1.87,0-3.53-.91-5.31l.25-1.68,1.86-1.87,4.13.74,4.6,1.61,2.28,1.52,3.19,2.91,2.27,2.52-.15,5.65-.93,5.56-.46,3.13-.48,4.31,1.44-1.78,3.62-5.06,3.78-5.55,3.47-4.22,5.05-5.37,4.98-4.61,2.85-2.04,5.13-4.26c.71-.92,2.4-.64,3.82-.18l2.52.61,2.04.7,4.1,3.24.96,3.42,1.57,3.45-.86,4.46-.34,2.71.3,2.61-1.07,3.28-.73,2.3-1.1,4.29.3,4.41-1.14,8.95-.49,6.33c-.7.61-.89,1.43-.88,2.17l.32,1.88,1.93,3.64,5.08-3.67,3.53-2.47,1.23.08Z"/>
        <path class="st11" d="M595.98,1083.5h-.64l-.03-3.15-1.14.85-.17,4.51-.5,1.44-.48,1.46-.26,5.17-1.09.09-.3-.67-.96.33.29.96h.97s.78,1.25.78,1.25l-.47,1.97-4.01,2.18.03,2.2.94.39,1.04-.77.33,1.22-2.04,3.71.77,1.38,1.12-.82,1.49.48-.3,1.81c-1.47.68-2.05,2.55-1.32,3.89l-.03,1.95-.16,4.16-.84.27-.91.38-.28,2.41-1.38.11-.48,1.69-.54,4.44-.46,1.66-1.3,1.7,2.43.79.72-1.97.55-.03,3.32.58,1.06,2.36,1.75.36-.92,1.57c-.11-.73.03.25.18,1.3,1.5-.75.8-.4-.25.12l-.46,1.74-.32,1.92-1.71.83.42,2.12-.02,1.29-.51.59-1.23.04-.06,1.85-.19.7-2.63.92-.3,2.65-1.91-.72,1.21,1.55,1.84.41.12,1.08-.57.34.02,1.01-.45,1.6-1.01,4.5c.38,2.01.2,4.1-.74,5.56l-.98,1.73c-.69.4-1.32.88-2.02,1.51l-2.09.88h-.67s-.63-.49-.63-.49l-.33-.82-1.48.02v-.47s-.67-1.25-.67-1.25l-2.32-.12-1.12-1.68-.93-1.71c-1.21-.34-2.2-1.33-2.73-2.44l-.66-2.01-.72-.65-.02-.61-.42-.57-.17-4.82c.29-.29.39-.51.08-.68l.11-1.09c.81-.19,1.46-1.61,1.23-2.42l.64-.07,2.21.6,1.69-1.93-1.29-4.03.39-2.12,1.01-2.54c.52-1.05.44-1.26-.37-.35l-1.15.32c.32-1.51.31-1.42.53-1.93l.55-4.68.75-3.43-.14-2.58.33-2.08-.84-2.17-.63-1.78-.25-1.86.08-.76c.17-4.14.75-8.31,1.45-12.75l.66-3.75.26-1.57,1.27-8.66.4-4.3.42-3.67c.08-.84.06-1.81-.37-2.56l-.02-4.13.35-3.06.48-4.28.07-7.31.59-4.88.36-5.58.38-5.45.27-4.46-.06-4.82-1.88-2.51-3.52-1.05-1.77-.97,2.29-2.28,2.72-1.15,2.48-1.37,2.82-.79,3.76.39,3.11-.23,2.56.22c1.7.67,3.41,1.72,4.72,2.99l2.33,2.83c1.11.95,2.25,2.16,3.1,3.31l1.52,4.02-.64,6.55-.24,2.55-.58,2.83-.22,3.64-.91,6.83-.47,3.66-.58,3.84-.93,2.05.19,3.19-.62,3.3-.71,4.72ZM584.37,1133.83l1.48,1.04.35-1.16-1.83.11ZM586.82,1135.06l1.48,1.04.35-1.16-1.83.11ZM586.38,1140.25c0-.27-.22-.5-.5-.5s-.5.22-.5.5.22.5.5.5.5-.22.5-.5M587.41,1145.49c0-.46-.38-.84-.84-.84s-.84.38-.84.84.38.84.84.84.84-.38.84-.84M585.36,1147.62l-1.29-.75-.91,1.25,2.2-.5Z"/>
        <path class="st20" d="M437.71,1149.32l-.87.06-.3,1.32c-.44,1.7-.78,3.64-.01,4.87l.08,1.16.51,4.89-.17,1.95.6,2.94.99,2.04-1.24,1.18-1.62.47-2.26-1.2-1.43,2.05-2.88.77-2.34-.97c-.77-.7-1.87-1.5-2.75-1.98l-2.7-.69,1.38-1.42-2.59-1.29-1.9-.86-.25-1.78-.94-1.78-.97-1.28-.69-1.19-.07-1.22-.02-.94-.63-.33-.55-1.17-.05-3.13.36-.55.9-.26-.31-.98-.65.65-.32-.51c-.15-.64-.44-1.67-.59-2l.03-1.76.34-3.06.7-4.85,1.04-3.61.75-6.08,1.13-8.81,1.03-3.56.21-2.22-2.41,2.12-2.97,3.3-3.04,2.87-2.51,3.57-1.69,3.89-2.02,2.89-2.85,4.47-.2,2.05-1.16,2.12-2.25,4.4-1.91,2.31-.04,1.44.72,1-.8,2.47c-.39.1-1.44.38-1.26.33l-.74,2.06-.83-.17-.87,2.78-1.61.84c-.25,1.17-.46,2.13-.16.75l-2.95-1.02-.2-2.36-2.18,2.18c-1.33.38-1.81,1.02-.09,1.05l1.14,1.51c-.05,0,.37-.05,1.96-.28l.75,1.58-1.89.61-2.47.4-1.67-.73-.72-2.72-1.77,2.93-1.15-.81-.87-1.25.94-.62-.58-2.34c-.41-1.01-.73-1.99-.92-2.91l1.33-.04-.32-1.21-.9-.05c.05-.88-.61-1.69-1.78-2.18-.55-.37-.91-1.58-.88-2.46l.36-3.24.57-2.48-.63-2.35-.16-1.8.64-.36v-1.02s.06-2.91.06-2.91l.5-.71.05-1.73.58-1.27.66-1.64-.67-1.98v-.61c.26-.29.52-1.24.64-1.92l.37-3.21,1.58-5.33.69-1.56,1.82,1.62.92,2.97-3.15,2.16,1.2,1-.29,1.03-1.55,1.63,1.88.7.87,1.96,1.35.61-.47,1.76-.33,2.21,1.71,1.37,1.87.12,1.64-.58,1.19,2.12,1.72.74,2.15-1.51.13-5.22.88-1.5.41-3.05,1.28-3.72.78-1.91.27-1.48,1.56-.16,1.97-2.79-.4-2.71-.05-4.53.56-.47,2.22,1.46-1.1,5.92-.78,4.87-1.9,6.94,6.91-9.7,10.05-11.15,2.17-2.24,3.08-2.96,3.16-2.36,2.64-2.2,2.07-1.91,3.4,1.03,4.43,1.6,2.49.74c.62.64,1.13,1.27,1.54,2.09l2.26,2.89.11,1.72,1.55.43-.52,4.09-.99,3.11-1.08,3.06-.61,2.25-.8,3.57c1.12.65,1.33.77,1.02.59l-1.42,3.95c-.24,1.91-.53,3.42-1.21,5.57.05.72.31,1.72.62,2.44v3.06s-1.01,5.87-1.01,5.87l-.51,7.33ZM378.69,1140.25c0-.38-.31-.68-.68-.68s-.68.31-.68.68.31.68.68.68.68-.31.68-.68M379.91,1143.92c0-.38-.31-.68-.68-.68s-.68.31-.68.68.31.68.68.68.68-.31.68-.68M379.84,1153.14l1.48.47.14-1.25-1.01-.42-.85-1.82.26-1.51-.98-.32-.26,1.05-.2,2.55.81,1.41.61-.17ZM381.74,1157.34c0-.38-.31-.68-.68-.68s-.68.31-.68.68.31.68.68.68.68-.31.68-.68M429.36,1165.89c0-.38-.31-.68-.68-.68s-.68.31-.68.68.31.68.68.68.68-.31.68-.68M427.68,1166.63l-2.3.12c.66,1.51,1.8,1.5,2.3-.12M432.73,1168.1l-1.26-1.77-1.65.57-.4,2.81,3.32-1.6Z"/>
        <path class="st14" d="M639.43,1149.52l.49.37-.73,3.25-1.2,1.77-1.53,2-2.66,2.2.56,2.33-2.98,2.1-2.15,2.55-3.48,1.98c-1,.85-2.35,1.61-3.61,1.67l-2.66.93-2.77-.43-2.22.93-2.56-1.75-1.74-1.91c-1.97-1.34-3.57-3.37-4.22-5.03.88-.62,1.01-1.36.84-1.9l-1.32-3.87-.83-2.38-1.04-2.79,1.54-.61v-1.52s.09-10.32.09-10.32l-1.4.09.53-5.19.11-2.3.43-4.86.65-3.7.14-3.56.99-.46-1.82-2.33-1.52-.03.14,4.15-2.22,1.71-1.01,1.75h-1.04s-.15,1.51-.15,1.51l-1.28.94-1.54.61-1.35-.77c.69.73.92.89,1.43,1.16l.24.82-1.02.82-1.48-.08v-1.32s-1.82-.11-1.82-.11l-1.36-.85.94-1.84.87-.79,1.03.34h1.68s.08-.69.08-.69l-2.45-.82,2.67-2.31,1.87.86,1.6-2.59-1.28-2.28.24-1.84.33-1.69.94-.69,1.09.9.66-1.56,1.44.79-1.8,1.61c-.27-.37.34.45.51.69l1.45.08,1.19-.43.53-2.02,1.28-.27.02-.99c1.11-.51,1.26-1.28,1.21-3.46-.28,0,.2,0,1.6-.05l.99-1.79.52-3.85,2.12-2.44h2.62s3.31,1.23,3.31,1.23l2.81,1.29c.66.45,1.52.89,2.3,1.11l2.1.89,1.04,2.22,1.74,3.56c.86.53,1.35.82,1.29.78l-.53,4.74-.74,3.59.41,2.51-1.2,5.73-1.01,5.93v2.44s-.32,4.94-.32,4.94v4.78c-.11.71-.21,1.3-.2,1.3l-1.31.75.82,4.14.71,3-.17,1.57,1.3.9c2.39-1.18,4.53-2.48,6.57-4.34l3.65-3.35,2-.18ZM602.06,1117.37c0-.17-.14-.31-.31-.31s-.31.14-.31.31.14.31.31.31.31-.14.31-.31"/>
        <path class="st2" d="M355.89,1128.02l-.37.94,1.46,2.49-.28,2.6,1.3,3.9c-.17.93-.43,2.29-.41,2.15l-1.64,1.81,1.16,1.71-1.07,3.68-1,1.06c-1.57.09-2.48.58-2.8,1.18l.98,2.35-1.04,2.4c-2.3-.4-2.03-.35-.08-.01l-1.25,1.99-.66,1.05-.89-.72-1.72-.76-1.26,4.63c-.16-.14.15.14,1.18,1.05l-.93,1.53-1.49-1.5-2.32.92,1.58,2.1c1.8-.08,2.56-.2,3.72-1.87.65-.74,2.12-.18,3.25.82l-.81,1.18-.02.51-2.03,1.43c-.65.37-1.37,1-1.58,1.45l-.7.13c-.35-.53-1.42-.73-2.27-.75l-1.46-.66c-.64-.44-1.96-1.49-1.69-1.36l.85-2.86c-.29-.6.6-1.36,1.71-1.59l1.63-3.12.14-3.38-2.36-.9-2.2.94-1.7,1.08-1.28-1.39-2.68.07-.1-2.19,1.54-.51.38-1.95,1.38-.83-.69-1.05c-.89-.7-1.9-1.44-2.7-1.93l-.04-1.97.63-.52-.04-1.49-.35-.37.02-1.26.89-4.4,1.88-8.53.9-4.74.52-3.07.37-6.58.9-5.63c-.29-1.82-.61-3.52-1-5.02l-3.55-2.7-1.61-3.28,3.9-1.14c.01.17-.07-.98-.14-1.86h4.54s3.54,1.42,3.54,1.42l2.17.72,5.62,4.25,2.71,2.36,1.68,2.09v5.01s.09,3.74.09,3.74l.36,2.96-.71,1.63-.87,2.58-.49,4.37-.73,3.64ZM355.42,1143.61c0-.17-.14-.31-.31-.31s-.31.14-.31.31.14.31.31.31.31-.14.31-.31"/>
        <path class="st12" d="M479.33,1115.19l-.06,1.5.71.43v1.1s-1.25.79-1.25.79l.03,2.31-.05.78-.57.49-1.12.3.05,1.04,1.05.13-.03,1.54v.61s-.64,1.04-.64,1.04l-.33,1.58-.34,2.14-1.18.41.59,1.16.13,2.78v.61s-.68.34-.68.34l.17.93v.61c-.25.45-.74,1.31-.69,1.21l-3.25,1.68.2,3.36-1.16,2.13c-.2.88-.38,1.71-.36,1.6-1.46,1.25-2,1.86-2.13,2.25l1.56,2.23c.38.91.88,2.73.89,3.19l-1.97.37v1.86s1.48.91,1.48.91l-1.08,1.75-3.29.39c-.55.01-1.42-1.31-1.77-2.32l-2.6-.88-1.87-1.94c1.18-1.72,1.86-3.65,1.85-5.27l-2.28.47-1.23.47-.72-.71-.1-1.07-.03-2.09-1.07-2.25.1-1.29,1.78-.51-1.32-1.85v-3.68s1.96-.62,1.96-.62l-1.19-1.56-.14-1.48-.07-.61.08-.65.02-.61.58-.24v-.95s-.48-1.84-.48-1.84l.6-4.92,1.27-4.84.58-3.61.79-2.64-.62-3.79c-.63-.59,0-1.97.85-2.19l1.18-1.94,3.31-.93,4.16.25,2.63,2.19,2.98,1.73,2.49,2.62,1.58,4ZM475.07,1131.4c0-.17-.14-.31-.31-.31s-.31.14-.31.31.14.31.31.31.31-.14.31-.31M457.39,1146.04l1.48,1.04.35-1.16-1.83.12ZM462.45,1146.36c0-.28-.22-.5-.5-.5s-.5.22-.5.5.22.5.5.5.5-.22.5-.5M461.94,1149.22l-.04-1.53-1.28,1c-.13-.05.52.21,1.32.53"/>
        <path class="st2" d="M399.92,1106.13v1.13s-.55.47-.55.47l.05,4.53.4,2.71-1.97,2.79-1.56.16-.27,1.48-.78,1.91-1.28,3.72-.4,3.05-.88,1.5-.13,5.22-2.15,1.51-1.72-.74-1.18-2.12-1.64.57-1.87-.12-1.71-1.37.33-2.21.47-1.76-1.35-.61-.87-1.96-1.88-.7,1.55-1.63.29-1.03-1.2-1,3.15-2.16-.92-2.97-1.82-1.62-.09-1.45.61-.88-1.29-.83-2.09.73-.37,2.69-3.55,1.4-1.98-.46-.85,1.79-1.78-1.23.88-2.6,1.66-.86.49-2.12,1.61.06,2.43-.86-1.84-1.1.19-1.88,1.47-.49,2.36,1.41.81-3.41.59-1.7.59-2.47.55-.58,1.96.25c.94.61,1.85,1.19,1.68,1.08,1.32-1.68,1.48-1.87,2.02-2.35l2.15-.58.15,2.78,1.69,2.02,1.5-.55-.71-1.05.23-1.25,1.52-.25.62,1.05,1.64.83,3.31,2.12,1.23.98c.37.74.52,1.04.51,1.02M382.28,1105.77c0-.17-.14-.31-.31-.31s-.31.14-.31.31.14.31.31.31.31-.14.31-.31"/>
        <path class="st11" d="M477.15,1092.01l-2.02,1.97-.96.56-1.44-.78-2.28-.8c-2.48-.92-4.36-2.67-5.54-4.88l-2.02-1.26.47-2.68,3.51-4.18c1.42-3.12,2.66-6.02,3.21-9.07-.22-1.18-.12-1.93.3-3.26l5.74.34,3.99,2.13,2.05,1.53c.69.52,1.49.88,2.85,1.26l2.56,3.01.2,2.72-4.66,5.59-2.04,2.75-2.12,2.56-1.78,2.49Z"/>
        <polygon class="st20" points="360.98 1139.71 361.44 1138.77 361.39 1137.81 362.72 1137.23 361.76 1139.28 360.98 1139.71"/>
        <path class="st20" d="M379.92,1113.39l-1.63.9-1.66,2.39-2,.14-1.68,2.04-3.04,4.3c-1.11,1.21-2.2,2.63-2.59,4.29l-2.45,5.24-2.13,1.74-1.35,3.38-.76.35-.37,1.18.74.37c-.35,1.2-.91,2.52-1.57,3.87l-1.64,2.8-.92,1.82-1.14,4.43-1.19,2.05-1.73,2.88c-.15,1.26-.21,2.54-.16,4.1l-.93,2.75-1.18.3.81-1.18c-1.13-1-2.6-1.56-3.25-.82-1.16,1.68-1.92,1.79-3.72,1.87l-1.58-2.1,2.32-.92,1.49,1.5.93-1.53c-1.03-.91-1.35-1.19-1.18-1.05l1.26-4.63,1.72.76.89.72.66-1.05,1.25-1.99c-1.96-.34-2.22-.39.08.01l1.04-2.4-.98-2.35c.31-.6,1.22-1.08,2.8-1.18l1-1.06,1.07-3.68-1.16-1.71,1.64-1.81c-.03.14.23-1.22.41-2.15l-1.3-3.9.28-2.6-1.46-2.49.37-.94,1.85-1.17,3.35-5.34,1.64-2.04,2.83-4.41,4.47-5.41,2.3-2.49,4.29-4.35c1.09-.81,2.22-1.59,3.24-2.2l-.59,2.47-.59,1.7-.81,3.41-2.36-1.41-1.47.49-.19,1.88,1.84,1.1-2.43.86-1.61-.06-.49,2.12-1.66.86-.88,2.6,1.77,1.23.86-1.79,1.98.46,3.55-1.4.37-2.69,2.09-.73,1.29.83-.61.88ZM361.99,1126.55l3.3-1.08.73-3.01.55-.82-.74-1.19.18-1.04,1.5-.64c.33-.71-.23-1.19-1.09-1.13l-1.67,1.47-1.44,1.45-.76,3.28-.55,2.71ZM364.04,1128.05c0-.38-.31-.68-.68-.68s-.68.31-.68.68.31.68.68.68.68-.31.68-.68"/>
        <path class="st16" d="M457.98,1157.41v-3.1s-1.71-.09-1.71-.09l.03-.53.06-3.04,1.03-.11.72.71,1.23-.47,2.28-.47c.01,1.62-.67,3.55-1.85,5.27l1.87,1.94,2.6.88c.35,1.01,1.22,2.33,1.77,2.32l3.29-.39,1.08-1.75-1.49-.91v-1.86s1.98-.37,1.98-.37c0-.46-.51-2.27-.89-3.19l-1.56-2.23c.13-.38.66-.99,2.13-2.25-.02.11.16-.72.36-1.6l1.16-2.13-.21-3.36,3.25-1.68c-.06.1.43-.77.69-1.21.33.19.31,1.6.06,1.92l-1.4,2.88-.66,4.36-.8,6.03.33,4.51,1.36,2.98,4.73-2.88,5.32-4.6-1.18,3.69.42,1.52-.8.57-2.29,3.26-1.62,1.89-2.63,2.44-3.4,1.95c-.58.84-1.53,1.42-2.23,1.37l-1.55.46-4.86-1.05-2.15-2.16-3.87-5.35-.63-4.2ZM457.37,1152.15c0-.17-.14-.31-.31-.31s-.31.14-.31.31.14.31.31.31.31-.14.31-.31"/>
        <path class="st18" d="M455.03,1146.89l.92.04-.21.84-.72,1.84,2.27-.13.1,1.07-1.03.11-.06,3.04-1.05-.96.79-2.31-1.31-1.28-2.47,3.04,1.45.71-.25,1.31-2.52,3.53-2.92,3.78c-.1,1.08-.42,1.96-.81,2.27l-3.05,2.14c-.83.86-1.52,2.08-1.79,3.1l-3.3,2.34.15,1.29-.98.95-2.92.48-3.57.69-1.69.51-3.53-.82c-1.23.53-2.09.38-3.34.11l-1.6-1.96-2.16-3.05-.78-.53-.56,1.13-2.21-3.63-.8-2.12c1.18-1.22,1.07-2.17.62-3.31l-.32-2.53.69,1.19.97,1.28.94,1.79.25,1.78,1.9.86,2.59,1.29-1.38,1.42,2.7.69c.88.48,1.98,1.27,2.75,1.98l2.34.97,2.88-.77,1.43-2.05,2.26,1.2,1.62-.47,1.24-1.18-.99-2.04-.6-2.94.17-1.95-.51-4.89.64,1.22c-.11,1.64.21,2.17,1.81,3.72,2.45-1.77,4.19-3.12,6.06-4.97l3.18-2.86,3.52-3.87,2.54-2.9.68-.18ZM441.91,1163.52l-3.48-.81.22,1.89,1.76.55,1.51-.42v-1.21Z"/>
        <path class="st20" d="M346.18,1168.22l-.56,1.94-2.39,1.84-2.54-.91-5.05-2.69c-1.04-.94-1.8-1.72-2.67-2.75l-2.5-8.76,1.12-2.69,1.35-1.79c.62-.43,1.4-1.51,1.52-2.14l.24-4.44c.81.49,1.81,1.23,2.7,1.93l.69,1.05-1.38.83-.38,1.95-1.54.51.1,2.19,2.68-.07,1.28,1.39,1.7-1.07,2.2-.94,2.36.9-.14,3.38-1.63,3.12c-1.12.23-2,.99-1.71,1.59l-.85,2.86c-.27-.13,1.06.92,1.69,1.36l1.46.66c.85.01,1.92.22,2.27.75"/>
        <path class="st17" d="M377.48,1153.6l-.11,1.3c.19.93.52,1.91.93,2.91l.58,2.34-.94.62.87,1.25,1.15.81,1.77-2.93.72,2.72,1.67.73,2.47-.4,1.89-.61-.75-1.58c-1.59.23-2.01.29-1.96.28l-1.14-1.51c-1.72-.03-1.23-.67.09-1.05l2.18-2.18.2,2.36,2.95,1.02c-.3,1.38-.09.42.16-.75l1.61-.84.87-2.78.83.17.74-2.06c-.18.05.87-.23,1.26-.33v1.7s-2.07.97-2.07.97c.07-.12-.51.93-.86,1.59l-.55,2.36.08,2.43-1.29,2.24c.9.75-.17-.14-.47-.39l-1.71-1.06-1,1.72-.91,2-2-1.15-1.8-.66-.79.67-1.86-2.15-1.28,1.1c-.99-.91-1.39-1.84-1.31-3.4-.55-1.86-1.36-2.99-2.92-3.58-.98-1.78-1.83-4.14-2.1-6.04l.7-5.03.24-2.58,1.47-2.89.63,2.35-.56,2.48-.36,3.24c-.03.87.33,2.08.88,2.46,1.17.48,1.83,1.3,1.78,2.18"/>
        <path class="st23" d="M568.07,1149.49l-.16-1.3v-2.44s-.05-.61-.05-.61l.69-.31-.47-1.1-.21-.4.71-1.77,1.25-11.67.36-3.05.53-4.28.37-1.74.63,1.78.84,2.17-.33,2.08.14,2.58-.75,3.43-.55,4.68c-.22.5-.21.42-.53,1.93l1.15-.32c.81-.91.89-.7.37.35l-1.01,2.54-.39,2.12,1.29,4.02-1.69,1.93-2.21-.6Z"/>
        <path class="st20" d="M399.92,1106.13s-.14-.28-.51-1.02l-1.23-.98-3.31-2.12-1.64-.83-.62-1.05-1.52.25-.23,1.25.71,1.05-1.5.55-1.69-2.02-.15-2.78-2.15.58c-.54.48-.7.67-2.02,2.35.17.11-.74-.47-1.68-1.08l-1.96-.25,1.08-.87,2.79-2.27c.71-1.18,2.22-2.16,3.13-1.94l3.9,1.83,2.67.63.39,1.15,1.79.34.55,1.94,2.21,2.12,1,1.77v1.42Z"/>
        <path class="st18" d="M605.78,1111.57l-1.29.24v1.02s-.54,2.02-.54,2.02l-1.19.42-1.45-.08c-.17-.23-.78-1.06-.51-.69l1.8-1.61-1.44-.79-.66,1.56-1.09-.9,1.87-2.52,2-2.21,6.84-5.61-.52,3.85-.99,1.79c-1.41.04-1.88.05-1.61.05.05,2.19-.09,2.96-1.21,3.46"/>
        <polyline class="st18" points="593.02 1120.02 598.46 1113.44 598.13 1115.13 597.89 1116.98 599.17 1119.26 597.57 1121.85 595.7 1121 593.03 1123.31 595.48 1124.13 595.4 1124.81 593.73 1124.82 592.69 1124.49 591.82 1125.28 590.89 1127.12 592.24 1127.97 591.68 1128.63 590.12 1127.92 589.19 1126.78 589.87 1124.64"/>
        <path class="st10" d="M593.9,1095.82l.07,1.05-.55.46.06,1.46-.84,4.13-.44,3.91.14,1.83-.61,1.62-.39,2.58-1.3.55c-.73-1.34-.15-3.21,1.32-3.89l.3-1.81-1.49-.48-1.12.82-.77-1.38,2.04-3.71-.33-1.22-1.04.77-.94-.39-.03-2.2,4.01-2.18.47-1.97,1.44.07Z"/>
        <path class="st18" d="M590.39,1145.15l.02-1.29-.42-2.12,1.71-.83.32-1.92.46-1.74c1.05-.52,1.75-.87.25-.12-.15-1.05-.28-2.03-.17-1.3l.92-1.57c.73-.66,1.39-1.97,1.53-2.81l-1.28-.55-.09-1.16.41-.33,1.48.08,1.02-.82.74.03.48-.64.65.12-2.35,4.32-1.99,4.17-1.42,2.85-1.62,4.49-.66,1.16Z"/>
        <path class="st25" d="M566.04,1145.75l-.1.97-1.78,2.06,2.77-1.93c-.03.1.21-.68.33-1.09h.65v2.44s.17,1.3.17,1.3l-.64.07-.42-1.52.42,1.52c.23.81-.43,2.23-1.23,2.42l.63-2.69-2.55,1.81-.31-.64-1.5.07-.12-1.01,1.68-2.85,2-.92Z"/>
        <path class="st25" d="M567.87,1145.14l-.46-.77-.15,1.38h-1.22c.07-.92.96-2.01,1.84-2.43l.21.4.47,1.1-.69.31Z"/>
        <polygon class="st18" points="605.69 1119.58 604.22 1121.07 601.53 1124.99 600.22 1125 600.25 1124.38 601.26 1122.63 603.48 1120.92 603.34 1116.77 604.86 1116.8 606.68 1119.12 605.69 1119.58"/>
        <path class="st24" d="M644.9,1144.13l-.06.99-1.88,1.04-1.27,1.89-.73,1.09.86.9-1.54,1.65c-.28,1.35-1.11,2.73-2.31,3.21l1.2-1.77.73-3.25-.49-.37.81-1.6,2.84-3.37,1.62-1.1.2.69Z"/>
        <polygon class="st18" points="586.6 1153.15 584.76 1152.74 583.55 1151.18 585.47 1151.9 585.77 1149.25 588.4 1148.33 588.52 1149.61 586.6 1153.15"/>
        <polygon class="st6" points="491.39 1145.88 489.96 1147.02 486.17 1152.05 484.86 1153.33 485.72 1151.39 488.7 1147.64 490.15 1145.46 491.08 1144.53 491.39 1145.88"/>
        <line class="st5" x1="395.63" y1="1148.16" x2="397.55" y2="1145.85"/>
        <polygon class="st16" points="457.29 1149.48 455.02 1149.61 455.74 1147.77 455.95 1146.93 455.03 1146.88 455.05 1146.28 454.97 1145.76 456.19 1145.14 457.26 1147.39 457.29 1149.48"/>
        <polygon class="st24" points="456.76 1137.81 456.76 1141.49 455.95 1142.43 456.3 1143.85 456.19 1145.14 454.96 1145.76 455.46 1144.92 455.65 1139.26 456.15 1137.8 456.69 1136.54 456.76 1137.81"/>
        <path class="st18" d="M437.71,1149.32l-.34,1.54-.22,4.57-.63.14c-.77-1.23-.43-3.17.01-4.87l.3-1.32.86-.06Z"/>
        <polygon class="st16" points="478.1 1125.61 478.13 1124.07 477.08 1123.94 477.03 1122.9 478.14 1122.61 478.71 1122.12 478.88 1124.42 478.1 1125.61"/>
        <path class="st20" d="M346.88,1168.09c.21-.45.93-1.08,1.58-1.45l2.04-1.43-.7,1.84-1.18.21-.46,1-1.28-.17Z"/>
        <polygon class="st16" points="456.76 1137.81 456.69 1136.54 456.6 1135.1 457.39 1134.15 457.54 1135.63 458.73 1137.19 456.76 1137.81"/>
        <path class="st17" d="M376.19,1132.37c-.05-1.61-.02-3.53.56-4.89l.67,1.98-.66,1.64-.58,1.27Z"/>
        <polygon class="st18" points="457.98 1157.41 457.31 1156.82 456.27 1154.22 457.98 1154.31 457.98 1157.41"/>
        <polygon class="st16" points="476.33 1135.32 476.2 1132.55 475.61 1131.39 476.79 1130.99 477.13 1128.84 477.46 1127.26 478.11 1126.22 477.85 1128.92 477.04 1131.35 476.84 1135.31 476.33 1135.32"/>
        <path class="st4" d="M583,1168.97l-.58,1.41-1.62,1-.74.27-.05,1.05-1.19-.63.06-.72,2.09-.88c.71-.63,1.34-1.11,2.02-1.51"/>
        <polygon class="st25" points="575.77 1169.61 574.15 1169.83 572.78 1168.24 575.11 1168.36 575.77 1169.61"/>
        <polygon class="st16" points="478.77 1121.33 478.73 1119.02 479.99 1118.23 479.73 1120.34 478.77 1121.33"/>
        <polygon class="st20" points="334.67 1143.86 334.07 1143.09 334.91 1141.47 335.26 1141.85 335.3 1143.34 334.67 1143.86"/>
        <path class="st25" d="M601.53,1124.99l-.7.59-1.26.97-.16,1.52-.98.09-.65-.12v-.61c.84-.65,1.79-1.6,2.44-2.44h1.3Z"/>
        <polygon class="st24" points="580.02 1172.71 580.06 1171.65 580.81 1171.38 581.08 1171.85 581.34 1172.94 580.38 1173.28 580.02 1172.71"/>
        <polygon class="st19" points="414.08 1154.91 413.04 1153.74 414.03 1151.78 414.08 1154.91"/>
        <path class="st18" d="M589.88,1145.74c0,.58-.72,1.62-1.29,1.89l.06-1.85,1.23-.04Z"/>
        <polygon class="st25" points="577.6 1170.87 575.89 1171.51 575.78 1170.07 577.26 1170.05 577.6 1170.87"/>
        <path class="st16" d="M479.98,1117.12l-.71-.43.06-1.5c.15.31.46,1.28.65,1.93"/>
        <path class="st5" d="M593.48,1098.79l-.06-1.46.55-.46c.05.56-.2,1.75-.49,1.92"/>
        <path class="st19" d="M414.01,1150.14c-.13-.33-.42-1.35-.59-2,.15.33.44,1.36.59,2"/>
        <path class="st17" d="M376.76,1126.87l-.06-1.51.68-.42c-.11.68-.38,1.63-.63,1.92"/>
        <polygon class="st17" points="374.94 1139.1 374.94 1138.1 375.57 1137.72 375.59 1138.74 374.94 1139.1"/>
        <polygon class="st25" points="529.55 1145.74 528.76 1145.47 528.94 1144.53 529.55 1145.74"/>
        <path class="st16" d="M791.31,1109.86c-.56-.41-1.13-1.32-1.22-1.99l1.22,1.99Z"/>
        <polygon class="st16" points="457.42 1132.28 457.34 1131.39 457.99 1131.09 458 1132.04 457.42 1132.28"/>
        <polygon class="st18" points="586.18 1155.58 586.16 1154.57 586.72 1154.23 586.82 1155.22 586.18 1155.58"/>
        <polygon class="st19" points="414.39 1151.23 414.33 1150.65 414.98 1149.99 415.29 1150.97 414.39 1151.23"/>
        <polygon class="st19" points="415.28 1157.34 414.62 1157.06 414.64 1156.08 415.26 1156.4 415.28 1157.34"/>
        <polygon class="st16" points="475.82 1137.2 475.65 1136.27 476.32 1135.93 475.82 1137.2"/>
        <path class="st23" d="M566.6,1159.13l-.42-.57.42.57Z"/>
        <path class="st23" d="M570.85,1118.94c0,.05.07-.71.08-.76l-.08.76Z"/>
        <path class="st23" d="M567.34,1160.39l-.72-.65.72.65Z"/>
        <path class="st16" d="M457.33,1133.54c-.45-.22-.37-.36.08-.65l-.08.65Z"/>
        <polygon class="st25" points="578.83 1172.08 578.22 1171.34 578.89 1171.36 578.83 1172.08"/>
        <polygon class="st24" points="455.03 1146.89 454.36 1147.07 455.05 1146.28 455.03 1146.89"/>
        <path class="st23" d="M566.01,1153.75l.08-.68c.31.16.22.38-.08.68"/>
        <path class="st17" d="M375.65,1134.81l.5-.71-.5.71Z"/>
        <path class="st14" d="M591.68,1128.63l.37,1.85,1.68.41,1.28.55c-.14.83-.8,2.15-1.53,2.81l-1.75-.36-1.06-2.36-3.32-.58.54-1.24c.33-.91.64-2.06.77-2.92l.53-.02.93,1.14,1.56.71Z"/>
        <path class="st18" d="M587.81,1122.56l-.08,1.97c-.07.83.25,2.01.92,2.27-.13.86-.44,2.01-.77,2.92l-.54,1.24-.55.03-.91-.14-.93-.38.46-1.66.54-4.44.48-1.69,1.38-.11Z"/>
        <polygon class="st14" points="586.8 1130.99 586.08 1132.95 583.65 1132.16 584.96 1130.46 585.89 1130.85 586.8 1130.99"/>
        <path class="st18" d="M587.41,1145.49c0,.46-.38.84-.84.84s-.84-.38-.84-.84.38-.84.84-.84.84.38.84.84"/>
        <polygon class="st14" points="586.82 1135.06 588.65 1134.94 588.3 1136.1 586.82 1135.06"/>
        <polygon class="st10" points="591.68 1093.87 591.68 1094.48 590.7 1094.5 590.41 1093.54 591.37 1093.2 591.68 1093.87"/>
        <polygon class="st14" points="584.37 1133.83 586.21 1133.72 585.86 1134.88 584.37 1133.83"/>
        <polygon class="st18" points="585.36 1147.62 583.16 1148.12 584.07 1146.87 585.36 1147.62"/>
        <path class="st18" d="M586.38,1140.25c0,.27-.22.5-.5.5s-.5-.22-.5-.5.22-.5.5-.5.5.22.5.5"/>
        <polygon class="st17" points="380.45 1151.95 379.84 1153.14 379.23 1153.31 378.41 1151.9 378.62 1149.35 378.88 1148.3 379.86 1148.62 379.6 1150.13 380.45 1151.95"/>
        <polygon class="st18" points="432.73 1168.1 429.41 1169.7 429.81 1166.89 431.47 1166.33 432.73 1168.1"/>
        <polygon class="st22" points="379.84 1153.14 380.45 1151.95 381.46 1152.37 381.32 1153.62 379.84 1153.14"/>
        <path class="st18" d="M427.68,1166.63c-.5,1.62-1.64,1.63-2.3.12l2.3-.12Z"/>
        <polygon class="st22" points="377.37 1154.9 377.48 1153.6 378.38 1153.65 378.69 1154.86 377.37 1154.9"/>
        <path class="st17" d="M381.74,1157.34c0,.38-.31.68-.68.68s-.68-.31-.68-.68.31-.68.68-.68.68.31.68.68"/>
        <path class="st17" d="M379.91,1143.92c0,.38-.31.68-.68.68s-.68-.31-.68-.68.31-.68.68-.68.68.31.68.68"/>
        <path class="st18" d="M429.36,1165.89c0,.38-.31.68-.68.68s-.68-.31-.68-.68.31-.68.68-.68.68.31.68.68"/>
        <path class="st17" d="M378.69,1140.25c0,.38-.31.68-.68.68s-.68-.31-.68-.68.31-.68.68-.68.68.31.68.68"/>
        <polygon class="st11" points="594.06 1129.4 593.65 1129.73 593.73 1130.9 592.06 1130.48 591.68 1128.63 592.24 1127.97 594.05 1128.08 594.06 1129.4"/>
        <path class="st18" d="M596.24,1127.43l.08.4c-.51-.27-.74-.44-1.43-1.16l1.35.77Z"/>
        <polygon class="st11" points="605.78 1111.57 605.76 1112.56 604.48 1112.82 604.49 1111.8 605.78 1111.57"/>
        <path class="st18" d="M602.06,1117.37c0,.17-.14.31-.31.31s-.31-.14-.31-.31.14-.31.31-.31.31.14.31.31"/>
        <path class="st20" d="M355.42,1143.61c0,.17-.14.31-.31.31s-.31-.14-.31-.31.14-.31.31-.31.31.14.31.31"/>
        <polygon class="st16" points="456.3 1143.85 455.95 1142.43 456.76 1141.49 458.08 1143.34 456.3 1143.85"/>
        <path class="st16" d="M461.94,1149.22c-.8-.32-1.45-.58-1.32-.53l1.28-1,.04,1.53Z"/>
        <polygon class="st16" points="457.39 1146.04 459.22 1145.92 458.88 1147.08 457.39 1146.04"/>
        <path class="st16" d="M462.45,1146.36c0,.27-.22.5-.5.5s-.5-.22-.5-.5.22-.5.5-.5.5.22.5.5"/>
        <path class="st16" d="M475.07,1131.4c0,.17-.14.31-.31.31s-.31-.14-.31-.31.14-.31.31-.31.31.14.31.31"/>
        <path class="st20" d="M382.28,1105.77c0,.17-.14.31-.31.31s-.31-.14-.31-.31.14-.31.31-.31.31.14.31.31"/>
        <path class="st2" d="M361.99,1126.55l.55-2.71.76-3.28,1.44-1.45,1.67-1.47c.86-.06,1.41.42,1.09,1.13l-1.5.65-.18,1.04.74,1.19-.55.82-.73,3.01-3.3,1.08Z"/>
        <path class="st2" d="M364.04,1128.05c0,.38-.31.68-.68.68s-.68-.31-.68-.68.31-.68.68-.68.68.31.68.68"/>
        <path class="st18" d="M457.37,1152.15c0,.17-.14.31-.31.31s-.31-.14-.31-.31.14-.31.31-.31.31.14.31.31"/>
        <polygon class="st20" points="441.91 1163.52 441.92 1164.73 440.41 1165.16 438.65 1164.61 438.43 1162.72 441.91 1163.52"/>
        <path class="st7" d="M567.44,1149.56l-.42-1.52.42,1.52Z"/>
        <path class="st22" d="M661.29,1118.79l.58.76v1.12c-.2.25-.28.51-.09.66v1.22s-.57.4-.57.4l.1,3.33.57-.02v1.12c-.11.08-.57.44-.53.41l-.43,2.07.17,1.43.33,5.62-.34,2.01,4.37-.53.37-2.97,1.71-.61,1.42-2.8,1.82-.11.91-1.31,1.71-.39.54-1.67,2.25,1.54.45-1.64-1.65-.64-1.74-1.86-1.37-1.49,1.23-1.11-.1-1.68,1.63-.22.59-2.22-.37-1.53,1.08-.27,2.34-.21c-.15-.21.32.45.51.71l-1.67.13c.1-.15-.4.65-.77,1.26l2.52.36,1.1.47-.11-1.63,1.7-2.4c.35.71.02.03-.4-.81.08-.03.09-.03-1.35.54.02.09-.17-.65-.25-.94l1.6-.44.99,1.22.89,5.83,1.07,1.19.91-.84,1.25-.98,1.24,1.1-.08.57-.59,3.79.42,1.46,1.12.45.93,1.07-.07.65-2.51,1.81c1,.92,2.09,2.08,3.02,3.21l.13,2.59-3.59,1.4-2.07-1.95-.08-.96,1.84-.6.22-1.53-.75-.24-.47,1.1-5.18.14-1.8-2.03-1.81.83c-.2,1.07-.69,1.5-2.19,1.91l-.34,1.38-1.34.32-3.68.29-1.45,3.85-.38,1.53.51,1.16-1.25.11-1.8,1.09.48,2.2-.18,3.68-.44,3.22-1.26,2.02-.05,1.77-1.17,2.73-4.16-2.06-1.67-1.51-4.08,2.01-.69,1.07-.67-.56-.3-1.46-.82.53-.94,1.77-1.28-.65-1.52-.88-.08-.6-.55-1.27.05-1.17c.02.12-.11-.75-.11-.78l.06-1.65c1.48-.74,1.8-2.6,1.29-4.22l.31-1.71-1.29-1.39.83-1.78-.24-.74-.84.23-.2-.69.06-.68.66-.75,2.47-1.34-.96-2.18-1.71-2.24-.31-1.6-.62-1.12-.09-1.78-.04-.67v-.61l.1-2.65-.7-.47-.81-7.29c.22-2.31-.28-4.86-1.81-6.45l-1.32-2.33,1.85-1.83,1.15-2.15,2.77-.12,2.57.07,4.98,2.16,2.13.83.98,1.63,2.02,1.38,2.4,2.85.84,2.66ZM680.42,1128.8l-2.3.12c.66,1.51,1.8,1.5,2.3-.12M678.44,1131.1c0-.38-.31-.68-.68-.68s-.68.31-.68.68.31.68.68.68.68-.31.68-.68M672.7,1132.11l-1.86,1.79c1.38.66,2.2.39,1.86-1.79M660.34,1139.76l-1.79-1.48-.45,1.91,2.24-.43ZM658.45,1147.37l.43-1.35-1.01-.31-.46,1.62,1.04.05ZM661.3,1150.92l1.48,1.04.35-1.16-1.83.12Z"/>
        <path class="st17" d="M689.23,1129.95l.44,1.1,1,4.45c.1.99.43,1.97.94,2.92l1.7,4.25,1.15,3.34,2.61-4.74,1.71-4.36,2.87-4.68.7.1.41,1.29-.74,2.24-.15,3.14,1.28-.22,2.11-1.56,1.07.35.29,1.44.49,4.04-2.08-.76-1.56,1.99,3.52.25,2.35.11.97-1.1.41-1.2-.46-1.61-.18-2.29,3.08.25.7-.6-.78-1.24,1.56-2.28,2.12.48,1.17-.18-1.61,4.11-1.9,4.34v.52s-.77.44-.77.44l.16,1.52c-.24.9-.78,1.89-1.58,2.83l-2.83,6.33-1.48,2.48-.06-1.76-1.1.1-1.53,2.24-2.46,3.63-2.27,3.45,2.14.49-2.79,2.64-2.6.39-2.64,1.87-3.12-1.82-.6,2.12-.57-1.12-2.69-.5-1.93-2.57.8-1.59-.6-1.02c-1.3-2.06-2.41-3.75-3.9-5.59l-2.69-5.27.29-3.09-.48-3.12c-.79-1.69-1.73-3.37-2.73-4.91l-1.13-2.9-1.06.67-.27,1.93-1.74.35-3.16,5.79c.88.81,1.18,1.08,1.05.96l-2.76,6.76-1.85,5.21-1.16-.06-.14,1.46-1.46-.52-1.55,2.4-.23-.61.23.61-.4,1.5-1.44,1.73-.43,2.29c-.83.03-1.75.07-1.68.07l-1.03,1.83-1.42-.84-1.77.78-1.53-1.78-.68-3.21c-1.37-.37-1.85-.5-1.78-.48l-2.01-3.94c-.64-.97-1.14-1.89-1.54-2.8l1.52.88,1.28.65.94-1.77.82-.53.3,1.46.67.56.7-1.07,4.08-2.01,1.67,1.51,4.16,2.06,1.17-2.73.05-1.77,1.25-2.02.45-3.22.18-3.68-.48-2.2,1.8-1.09,1.25-.11-.51-1.16.38-1.52,1.46-3.85,3.68-.29,1.34-.32.34-1.38c1.49-.41,1.98-.84,2.19-1.91l1.81-.83,1.8,2.03,5.18-.14.47-1.1.75.24-.22,1.53-1.84.6.08.96,2.07,1.95,3.59-1.4-.13-2.59c-.93-1.13-2.02-2.29-3.02-3.21l2.51-1.82ZM674.7,1138.12c0-.17-.14-.31-.31-.31s-.31.14-.31.31.14.31.31.31.31-.14.31-.31"/>
        <path class="st11" d="M721.5,1130.01c-.46.5-.86,1.31-1.36,2.5l-2.21,2.36-1.17.19-2.12-.48-1.56,2.28.78,1.24-.7.59-3.08-.25.18,2.29.46,1.61-.4,1.2-.97,1.1-2.35-.11-3.52-.25,1.56-1.99,2.08.76-.49-4.04-.29-1.44-1.07-.35-2.11,1.56-1.28.22.16-3.14.73-2.24-.41-1.29-.7-.1.46-2.31.69-.41.04-2.69v-.61s.56-.29.56-.29l.08-.89.04-.52.51-.11,1.42,1.51,1.33.34.3-.95-1.06-.64-1.99-.25.38-1.45.21-1.67.02-1.17,1.75-8.63.91-2.45.58-4.74c-1.2-1.37-.89-3.01-.2-4.24.2-.83.43-1.77.43-1.75l2.36-1.69,1.47.15-.12-1.1,2.52-.68,2.59,3.56,2.06,2.98,1.11,1.86c.89.96,1.83,2.15,2.6,3.24l.82,3.16,1.93,2.18-.69,4.99-1.85,4.76-.55,2.51.92-.27.13.99-1.92,5.06ZM711.33,1127.74c0-.17-.14-.31-.31-.31s-.31.14-.31.31.14.31.31.31.31-.14.31-.31M709.52,1132.53l.86-1.66-1.56-1.02-.59,1.16-1.94,3.52c1.32-.5,2.18-1.11,3.23-2M710.51,1137.16l1.33-.82-.32-.6-1.12.2.11,1.21Z"/>
        <path class="st17" d="M687.49,1121.95l-1.24-1.1-1.25.98-.91.85-1.07-1.19-.89-5.83-.98-1.22-1.6.44c.08.29.27,1.03.25.94,1.44-.57,1.43-.57,1.35-.54.41.84.74,1.52.4.81l-1.7,2.4.11,1.63-1.1-.47-2.52-.36c.37-.61.87-1.41.77-1.26l1.67-.13c-.19-.27-.66-.92-.51-.71l-2.34.21-1.08.27.37,1.53-.59,2.22-1.63.22.1,1.68-1.23,1.11,1.37,1.5,1.74,1.86,1.65.64-.45,1.64-2.25-1.54-.54,1.67-1.71.39-.91,1.31-1.82.11-1.42,2.8-1.71.61-.37,2.97-4.37.53.34-2.01-.33-5.62-.17-1.43.43-2.08s.43-.33.52-.41l.05,9.95,1.51-2.13,3.02-5.91,1.87-3.05,4.52-7.7,1.05-3.21,1.67-4.02c1.52-.16,3.48-.02,5.2.35l2.3,2.28,3.3,3.7,1.12,4.29Z"/>
        <polygon class="st17" points="645.42 1142.02 644.84 1142.01 644.37 1136.68 644.29 1133.54 644.91 1134.67 645.21 1136.26 646.93 1138.5 647.89 1140.68 645.42 1142.02"/>
        <path class="st17" d="M644.85,1153.74l.22-.73.29-3-.29-3.07-.22-1.82.06-.99.84-.23.24.74-.83,1.78,1.29,1.39-.31,1.71c.52,1.62.19,3.48-1.29,4.22"/>
        <path class="st17" d="M689.29,1129.29l-.93-1.07-1.12-.45-.42-1.46.59-3.79.84.42.03,2.67c-.62.44-.86.61-.4.28l1.19,1.96.22,1.44Z"/>
        <polygon class="st17" points="702.12 1129.93 701.53 1129.05 702.06 1128.04 702.85 1126.83 702.81 1129.52 702.12 1129.93"/>
        <polygon class="st17" points="661.88 1126.27 661.31 1126.29 661.21 1122.96 661.78 1122.56 661.88 1126.27"/>
        <polygon class="st17" points="644.15 1130.49 643.52 1130.09 643.55 1127.37 644.25 1127.84 644.15 1130.49"/>
        <polygon class="st17" points="704.04 1124.41 703.53 1124.52 703.76 1122.54 704.64 1121.28 704.42 1122.95 704.04 1124.41"/>
        <polygon class="st17" points="702.86 1126.22 702.76 1125.27 703.49 1125.04 703.4 1125.93 702.86 1126.22"/>
        <polygon class="st17" points="645.4 1158.62 644.76 1158.28 644.86 1157.34 645.4 1158.62"/>
        <path class="st17" d="M661.87,1119.55l-.58-.76.58.76Z"/>
        <path class="st17" d="M661.78,1121.33c-.19-.15-.11-.41.09-.66l-.09.66Z"/>
        <path class="st17" d="M644.2,1131.77c-.34-.24-.39-.43-.04-.67l.04.67Z"/>
        <polygon class="st24" points="644.76 1142.76 644.84 1142.01 645.42 1142.02 644.76 1142.76"/>
        <path class="st17" d="M644.9,1156.17l-.11-.78s.13.91.11.78"/>
        <path class="st17" d="M672.7,1132.11c.34,2.18-.48,2.45-1.86,1.79l1.86-1.79Z"/>
        <polygon class="st17" points="660.34 1139.76 658.09 1140.19 658.54 1138.28 660.34 1139.76"/>
        <path class="st17" d="M680.42,1128.8c-.5,1.62-1.64,1.63-2.3.12l2.3-.12Z"/>
        <polygon class="st17" points="658.45 1147.37 657.41 1147.33 657.87 1145.71 658.88 1146.02 658.45 1147.37"/>
        <path class="st17" d="M678.44,1131.1c0,.38-.31.68-.68.68s-.68-.31-.68-.68.31-.68.68-.68.68.31.68.68"/>
        <polygon class="st17" points="661.3 1150.92 663.13 1150.81 662.78 1151.97 661.3 1150.92"/>
        <path class="st22" d="M661.19,1164.08l-.23-.61.23.61Z"/>
        <path class="st17" d="M709.52,1132.53c-1.05.88-1.91,1.5-3.23,2l1.94-3.52.59-1.16,1.56,1.02-.86,1.65Z"/>
        <polygon class="st22" points="704.04 1124.41 706.03 1124.66 707.09 1125.3 706.79 1126.25 705.46 1125.92 704.04 1124.41"/>
        <polygon class="st22" points="710.51 1137.16 710.4 1135.95 711.52 1135.75 711.84 1136.35 710.51 1137.16"/>
        <path class="st17" d="M711.33,1127.74c0,.17-.14.31-.31.31s-.31-.14-.31-.31.14-.31.31-.31.31.14.31.31"/>
        <path class="st11" d="M768.72,1096.54l.2,2.77.12,1.28-4.73,1.56-.4,2.61,2.14-.36,1.12-1.02.82.86,2.98,2.23.86-2.7-2.36-3.32,2.96-.61,1,1.19-.39,2.71,4.85-.14,2.94-.63,1.86.22.3.73.4.84.19,1.31h1s.74.87.74.87l1.07.07.73-.8,1.16-.23,1.77.44.02,1.43c.09.67.65,1.58,1.22,1.99l.27,1.01.86.07.7.65-.03.48.09,1.51,1.76-.19-.72.74-1.42-.14.26,1.52-1.64,1.69c-1.09-.91-.72-.6-.04-.03l1.5.55-.49,1.78-.54,1.47,1.18.78-.53,2.69-2.63,8.36-.74,6.35.96,2.49.56,4.15c.37,1.44.43,2.63-.17,4.45.62,1.51,1.73,3.69,2.57,5.09l2.6,1.68,5.26-.08,4.95-1.88,5.72-2.11,4.54-2.44,3.37-2c1.3.18,1.96.05,2.81-.3l-.28,2.79-1.3.48-.09.78-1.01,1.01.16.85-1.51.41-.99.97.2.7,3.09-.14-.48.68c-.38.28-1.05.93-1.35,1.31l-.56.52-.77.71-1,.19-3.17-1.08-3.46,2.8-.43,2.48-1.42,1.68-.81.49-.59.09-4.35,2.1-1.93.25-2.16-1.62-2.83.63-1.86.16-1.16-1.06-1.2.27-.14,1.61-1.53.05-1.98,2.42-1.38-1.61-1.12.23-1.06-.8-2.36-.8-.39-2.13-2.63-1.47-1.23-.79-2.98-2.43-1.84-2.35-.72-.67-.11-.5-1.04-4.33-.89-3.08.1-1.66,1.01-1.6,2.22.84v.98s.96.27.96.27l.53-1.45-.88-1.03-.1-3.07.07-2-.61-1,.64-.03c.39-.25.38-.49.02-.72l-.09-.99.1-1.08-.99-.33-.35,1.16-2.14.31-.31,2.11-.93.19-1.44,1.26-1.9-1.04-1.74.17-1.2-.13.39.92,1.21.19-.19,1.06-2.09.76-.12,2.18c-.78-.06-1.65-.13-1.6-.12l-.33-1.76-1.34,1.14,1.86,1.08-.35,2.12-2.23,1.97-3.08-1.51.26,3.61c.07-.01-1.06.16-2.2.33l-1.17.84.52,1.15-.11,2.25-2.03.37c.37-.82-.07.16-.35.8l.03,2.26-2.06-1.06.3-2.96-3.15-1.57,1.09,3.22-.88,1.25,2.08,3.48-.36,1.67.67.22-.65.83c-.43-1.28-1.03-.58-1.46.92l-1.75-.1-.83,1.15-1.63-.44,1.44-2.85-1.69,1.28-1.75,2.07-2.75-1.82-.6,1.34-1.18.36-3.4-.2-1.13-2.2-2.54-1.06.7-2.12-.75-.68.77-1.02c.52-.98,1.01-2.49,1.19-3.51l-2.33-.99-1.14-.59-.15-3.56.73-4.29,1.93-.5-1.71-1.67-.18-3.15.63-.63.84-.17,1.68-.07.61-1.89,1.8-.52,2.06-3.17-1.08-1.2c-1.76.16-2.51-.25-2.45-1.22l.83-.44,1.63-.76,1.21-2.04,2.12-.75-1.32-1.98,1.22.08,1.82,1.76.1-4-1.88-.79.5-.91,1.4-.7.53-1.71.14-2.24h3.31s.21-1.24.21-1.24l.38-1.71,1.42.8,1.51.18.29-1.32-1.07-.78,1.16-.98,1.87-2.84,1.54.48.66-1.78.98-4.08-.18-1.27.73-.72c.05.4.16,1.28.16,1.25l2.54,1.36c1.04-.98,1.65-2.61,1.3-4.44l1.23-1.84.62.64,1.02,1.35,1.61-.17,1.61-.55.27-1.38,1.55-.74.19-1.34,1.19-.31,2.44.1.12-1.25,1.16.23ZM760.17,1105.16c0-.17-.14-.31-.31-.31s-.31.14-.31.31.14.31.31.31.31-.14.31-.31M775.5,1106.51l-2.97-1.17.05,1.85,1.2.78,1.71-1.45ZM752.24,1106.99c0-.17-.14-.31-.31-.31s-.31.14-.31.31.14.31.31.31.31-.14.31-.31M759.01,1117.57l-.63.62-.78.11c-1.18-.38-3.16-.63-4.5-.71-.65,1.54-1.09,2.26-2.04,2.44l-.03-1.14-.61-1.79-.61,1.79-.65.29.13,1.02-.08.37-.67.03c-.63.05-1.67.54-2.57,1.04l-1.05,1.72.46,1.49-1.19.13-.44,1.06-.97.33-.28.97-1.29,1.31-.08,1.12-.64.17-1.21,1.49-.37,2.91,1.82.56-.05,1.64-.76.08-.32,1.26-1.24,2.67.9.65.17,1.35-.96.38.31,1.06.14,1.17-.17,1.28-1.59,1.6-1.22,2.03.69,2.67c-.57.81-1.67,1.64-2.33,1.6l-1.56-.28,1.06,2.29,3.99-1.11,1.96,1.56,2.46.1-.44.61.77,1,1.06-1.03-1.18-1.85c.38-.44.69-.55,2.42-.91v-2.33s.25-1.45.25-1.45l.93-.33-.03-1.6,1.37-.5-.25-1.44c.2-.42,1.06-1.31,1.44-1.45l.46.85.71-.92,1.44-1.82,1.55,2.25s1.32.22,2.18.36l1.47-2.01,1.07-2.03,1.27-1.73,2.46-2.31,1.55-1.7-1.77-1.43.33-.68,1.98.21,1.51.28,1.77-.91-.8-1.68-.18-1.69,1.42-2.08c.79-.73,1.19-1.56,1.48-3.05l1.7-.8.81-3.33-.99-.23,1.11-1.68,1.05.02.72-1.56c1.55.04,1.68.03.53-.03l-1.04-.91.48-1.95,1.46-3.01-.03-1.11-.37-1.49-1.54-.03-2.95-.36-2.27.73-2.38-.8-.59,1.84-1.92.59-2.52,1.76-.28,2.08-.41,2.31ZM775.43,1109.43c0-.17-.14-.31-.31-.31s-.31.14-.31.31.14.31.31.31.31-.14.31-.31M787.9,1111l-.25-1.56-1.36.14.36,1.87,1.26-.45ZM756.38,1113.86l.46-.94-2.22-.1.39,2.71,1.37-1.67ZM790.16,1113.4c0-.38-.31-.68-.68-.68s-.68.31-.68.68.31.68.68.68.68-.31.68-.68M752.92,1115.84c0-.38-.31-.68-.68-.68s-.68.31-.68.68.31.68.68.68.68-.31.68-.68M740.85,1125.1l-.49-1.37-1.08.35.26,2.25,1.3-1.23ZM736.32,1137.86l1.06-1.41-1.11.06-.28,1.11-.87,2.11c.7,1.34,1.16,1.64.8.32l.4-2.19ZM767.18,1139.18l1.16-.37-.28-.92-.88,1.3ZM752.3,1148.55c-.34-2.35-1.02-2.35-1.36,0h1.36ZM757.8,1148.19c0-.38-.31-.68-.68-.68s-.68.31-.68.68.31.68.68.68.68-.31.68-.68M751.08,1152.1h-1.36c.34,2.35,1.02,2.35,1.36,0M773.67,1152.46c0-.38-.31-.68-.68-.68s-.68.31-.68.68.31.68.68.68.68-.31.68-.68M744.47,1162.17l-1.25-2.47-2.2-.12-1.21-1.12-.96,1.21.17,1.52,1.33.65,1.43,1.62,2.46-.19.25-1.1ZM784.05,1165.28c0-.38-.31-.68-.68-.68s-.68.31-.68.68.31.68.68.68.68-.31.68-.68"/>
        <path class="st16" d="M767.46,1142.17l.11.98-1.14.53-.09.92-2.49,3.03-4.86,4.82-1.26,2.41-1.66,2.1.23,1.8-4.06,3.4-2.77,2.34-2.1.56-.67-.21.36-1.67-2.08-3.48.88-1.25-1.09-3.22,3.15,1.57-.3,2.97,2.06,1.05-.03-2.26c.28-.64.72-1.63.35-.8l2.03-.37.11-2.25-.52-1.15,1.17-.85c1.14-.17,2.26-.34,2.2-.33l-.26-3.61,3.08,1.51,2.23-1.97.35-2.12-1.86-1.08,1.34-1.14.34,1.76c-.06,0,.82.06,1.6.13l.12-2.18,2.09-.77.19-1.06-1.21-.19-.39-.92,1.2.13,1.74-.17,1.9,1.05ZM755.51,1154.43l-2.3.12c.66,1.51,1.8,1.5,2.3-.12"/>
        <path class="st16" d="M746.74,1165.89l-1.02,1.08-2.21,2.15-2.98,1.55-4.18.25-1.93.1-1.86-.55-1.43-1.46-2.89-1.4c-.81-.46-1.87-1.56-2.59-2.47l-.25-1.28,1.16-.54v-1s-.11-3.32-.11-3.32l-1.05-1.03-.06-.7.21-1.48.36-.34,1.14.59,2.34.99c-.18,1.02-.67,2.53-1.19,3.51l-.77,1.02.75.68-.7,2.12,2.54,1.06,1.12,2.2,3.4.2,1.18-.36.6-1.34,2.75,1.82,1.75-2.07,1.69-1.28-1.44,2.85,1.64.44.83-1.15,1.75.1c.42-1.5,1.03-2.2,1.46-.92"/>
        <path class="st1" d="M817.44,1159.27c-.03,1.04-.73,2.34-1.58,2.95l-3.76,1.98-1.78.84-.81,1.6-1.02-.05-.45-.83-.89.07.81-.49,1.42-1.68.43-2.48,3.46-2.8,3.17,1.08,1-.19Z"/>
        <path class="st1" d="M808.5,1166.59c-.4.49-1.49,1.03-2.36,1.35l-2.15.89-2.07-.28-4.69,1.18-2.38.72-.82-.22-.88.54-1.62,1.84c-.3-.68-.61-1.4-.45-1.02-2.14-.09-2.48-.1-4.1-.35-.83-.36-1.59-.24-2.5.16l-4.65-3.03.53-1.22,1.13.61,2.36.8,1.06.8,1.12-.23,1.38,1.61,1.98-2.42,1.53-.05.14-1.61,1.2-.27,1.16,1.06,1.86-.16,2.82-.63,2.16,1.62,1.93-.25,4.35-2.1.35.63,1.58.04Z"/>
        <polygon class="st16" points="780.84 1102.97 777.9 1103.61 773.05 1103.75 773.44 1101.04 772.44 1099.86 769.48 1100.47 771.84 1103.79 770.98 1106.49 768 1104.25 767.17 1103.39 766.05 1104.41 763.92 1104.78 764.31 1102.16 769.04 1100.6 768.92 1099.32 768.72 1096.54 774.15 1098.34 776.07 1099.41 779.74 1101.38 780.84 1102.97"/>
        <path class="st16" d="M738.77,1121.13l-2.27-.98,1.07-1.83,1.65-.12-.37-2.47c.56-.5.7-.62.6-.53l1.15-1.17.76-.58,4.71-4.41,2-2.49,2.93-2.21.18,1.27-.98,4.08-.66,1.78-1.54-.48-1.87,2.84-1.16.98,1.07.78-.29,1.32-1.51-.18-1.42-.8-.38,1.71-.21,1.24h-3.31s-.14,2.23-.14,2.23Z"/>
        <polygon class="st23" points="738.77 1121.13 738.24 1122.84 736.85 1123.54 736.35 1124.45 736.1 1126.28 736.31 1127.48 735.09 1127.4 734 1127.34 731.93 1128.87 730.64 1129.09 730.43 1130.21 730.49 1132.15 731.44 1132.94 730.61 1133.38 729.71 1133.38 728.51 1133.56 729 1131.08 730.21 1129.02 732.05 1126.06 734.74 1122.04 736.5 1120.15 738.77 1121.13"/>
        <path class="st16" d="M730.61,1133.38c-.05.97.69,1.39,2.45,1.22l1.08,1.2-2.06,3.17-1.8.52-.6,1.89-1.68.07,1.24-3.67-1.42-1.16-.09-1.25.02-.61.75-.28v-.92s1.2-.18,1.2-.18h.91Z"/>
        <path class="st24" d="M726.49,1147.58l-.73,4.29.15,3.56-.36.34-.21,1.48-.65-.46v-1.21c-.66-1.35-1-2.88-.69-4.1l.69-5.7.04-2.69.62-1.12c.03.1.3.84.23.65-.05,1.34-.02,2.71.1,3,.82.6.97,1.37.81,1.96"/>
        <path class="st16" d="M763.82,1097.77l-.19,1.34-1.55.74-.27,1.38-1.61.55-1.61.17-1.02-1.35-.62-.64-1.23,1.84c.35,1.83-.26,3.46-1.3,4.44l-2.54-1.36s-.11-.85-.16-1.25l1.82-1.71,2.04-.98.59-.94,1.03-.31,6.62-1.92Z"/>
        <path class="st4" d="M826.2,1145.11l.43.51-.45,2.53-3.73,2.81-1.78,1.29.09-.78,1.3-.48.28-2.8c1.17-1.12,2.51-2.26,3.85-3.08"/>
        <path class="st15" d="M769.66,1150l.89,3.08,1.04,4.33-1.08-.53c-1.2-2.42-1.9-4.62-1.85-7l.98.13Z"/>
        <polygon class="st15" points="728 1141.45 727.16 1141.62 727.14 1140.51 726.04 1139.76 726.99 1136.61 727.73 1135.37 727.82 1136.62 729.25 1137.78 728 1141.45"/>
        <path class="st16" d="M788.3,1106l-1.16.23-.73.8-1.07-.07-.75-.88-.24-1.25-.95-.05-.4-.84-.3-.73c1.33-.12,2.95,1.31,4.32,2.2l1.27.6Z"/>
        <path class="st16" d="M727.16,1141.62l-.63.63.18,3.15,1.71,1.67-1.92.5c.17-.59.01-1.36-.81-1.96-.12-.3-.15-1.66-.1-3,.07.19-.2-.56-.23-.65l.68-2.2,1.11.75.02,1.11Z"/>
        <polygon class="st23" points="781.51 1167.75 780.38 1167.14 778.65 1165.83 777.26 1163.36 778.49 1164.15 781.12 1165.62 781.51 1167.75"/>
        <path class="st16" d="M794.25,1114.14l-1.34,3.58-1.5-.55c-.68-.57-1.05-.88.04.03l1.64-1.69-.26-1.52,1.42.14Z"/>
        <polygon class="st24" points="726.57 1162.3 725.7 1161.05 725.4 1157.95 726.45 1158.98 726.57 1162.3"/>
        <path class="st1" d="M737.56,1118.32l.27-1.62,1.61-1.5c.1-.09-.04.03-.6.53l.37,2.47-1.65.12Z"/>
        <polygon class="st16" points="794.97 1113.4 793.2 1113.59 793.11 1112.08 794.83 1111.72 794.97 1113.4"/>
        <polygon class="st16" points="793.14 1111.6 792.44 1110.95 793.01 1110.18 793.14 1111.6"/>
        <polygon class="st15" points="727.75 1134.76 727.69 1133.81 728.51 1133.55 728.5 1134.48 727.75 1134.76"/>
        <path class="st1" d="M740.59,1114.03l.76-.58-.76.58Z"/>
        <path class="st15" d="M772.43,1158.58l-.73-.67.73.67Z"/>
        <path class="st19" d="M817.44,1159.27l.77-.71-.77.71Z"/>
        <path class="st16" d="M765.69,1132.36l-1.61.39-.87,1.92-1.98-.21-.33.68,1.77,1.43-1.55,1.7-2.46,2.31-1.27,1.73-1.07,2.03-1.47,2.01c-.85-.14-2.18-.36-2.18-.36l-1.55-2.25-1.44,1.82-.71.92-.46-.85.46-1.31,3.58-1.26,2.33-3.14,2.63-1.41-.64-1.85,3.47-3.98,3.36-4.12,2.72-3.79c1.11-1.39,2.29-2.73,3.52-3.59l.99.23-.81,3.33-1.7.8c-.29,1.5-.7,2.32-1.48,3.05l-1.42,2.08.18,1.69Z"/>
        <path class="st16" d="M738.72,1146.45l-.17,2.93-.8,4.77,1.27-.04c2.78-2.86,5.21-5.07,8.06-7.03l.25,1.44-1.37.5.03,1.6-.93.33-.25,1.45v2.33c-1.73.36-2.04.47-2.42.91l1.18,1.85-1.06,1.03-.77-1,.44-.61-2.46-.1-1.96-1.56-3.99,1.11-1.06-2.29,1.56.28c.66.04,1.77-.8,2.33-1.61l-.69-2.66,1.22-2.03,1.59-1.6Z"/>
        <path class="st16" d="M774.22,1110.94l-2.2-.28-2.75.41-2.52,1.09c-1.94.84-3.83,2.08-5.39,3.6-.8.8-1.6,1.44-2.36,1.81l.41-2.31.28-2.08,2.52-1.76,1.92-.59.58-1.84,2.38.8,2.27-.73,2.95.36,1.54.03.37,1.49Z"/>
        <polygon class="st15" points="754.69 1121.34 753.73 1123.42 750.22 1125.73 744.2 1132.75 743.33 1134.13 741.69 1137.32 741.12 1137.8 740.66 1136.55 740.71 1134.92 742.17 1133.99 743.64 1133.18 743.09 1131.47 744.08 1130.97 744.92 1127.25 744.7 1126.18 743.74 1126.05 744.17 1124.99 745.36 1124.86 746.14 1125.28 749 1124.46 750.13 1122.83 753.11 1121.7 754.69 1121.34"/>
        <polygon class="st15" points="772.96 1140.28 773.57 1141.28 773.5 1143.28 773.6 1146.36 772.99 1147.58 770.77 1146.74 769.76 1148.34 768.96 1148.23 768.62 1146.94 768.35 1145.41 766.35 1144.6 766.44 1143.68 767.58 1143.15 767.46 1142.17 768.9 1140.91 769.84 1140.72 771.24 1141.25 772.96 1140.28"/>
        <path class="st16" d="M757.6,1118.3l.02.63-.61.15-.97-.2-.65,2.2-.71.27-1.58.36-2.98,1.12-1.13,1.64-2.85.82-.78-.41-.46-1.49,1.04-1.72c.9-.5,1.94-.99,2.57-1.04l.44,1.44c.74.06.94-1.11.23-1.47l.08-.37,1.77-.17c.95-.18,1.39-.91,2.05-2.44,1.34.08,3.32.33,4.5.71"/>
        <polygon class="st16" points="743.74 1126.05 744.7 1126.18 744.92 1127.25 744.08 1130.97 743.09 1131.47 743.64 1133.18 742.17 1133.99 740.71 1134.92 738.89 1134.36 739.26 1131.44 740.47 1129.96 740.19 1130.72 741.58 1131.15 741.91 1130.18 741.12 1129.78 741.19 1128.66 742.48 1128.42 742.49 1127.35 742.77 1126.38 743.74 1126.05"/>
        <polygon class="st16" points="735.09 1127.4 736.4 1129.38 734.28 1130.13 733.07 1132.18 731.44 1132.94 730.49 1132.16 730.43 1130.21 730.64 1129.09 731.93 1128.87 734 1127.34 735.09 1127.4"/>
        <polygon class="st16" points="744.47 1162.17 744.22 1163.27 741.76 1163.46 740.34 1161.84 739.01 1161.18 738.84 1159.67 739.81 1158.45 741.02 1159.58 743.22 1159.69 744.47 1162.17"/>
        <polygon class="st16" points="772.29 1138.3 773.53 1138.55 773.63 1139.54 773.6 1140.25 772.96 1140.28 771.24 1141.25 769.84 1140.73 770.15 1138.61 772.29 1138.3"/>
        <polygon class="st16" points="740.66 1136.55 741.12 1137.8 741.16 1138.42 740.64 1139.03 739.94 1140.83 739.24 1141.21 738.34 1140.56 739.58 1137.89 739.9 1136.63 740.66 1136.55"/>
        <path class="st16" d="M736.32,1137.86l-.4,2.19c.37,1.32-.1,1.03-.8-.32l.87-2.11.28-1.11,1.11-.06-1.06,1.41Z"/>
        <polygon class="st16" points="736.31 1127.48 736.1 1126.28 736.35 1124.45 738.23 1125.24 738.13 1129.24 736.31 1127.48"/>
        <polygon class="st22" points="765.69 1132.36 766.49 1134.04 764.72 1134.94 763.21 1134.67 764.08 1132.75 765.69 1132.36"/>
        <polygon class="st16" points="775.5 1106.51 773.79 1107.97 772.59 1107.19 772.53 1105.34 775.5 1106.51"/>
        <polygon class="st16" points="756.38 1113.86 755.01 1115.53 754.62 1112.82 756.84 1112.92 756.38 1113.86"/>
        <path class="st16" d="M771.04,1119.49l.46-1.49.82-.99,1.04.91c1.15.06,1.02.07-.53.03l-.72,1.57-1.06-.02Z"/>
        <polygon class="st16" points="787.9 1111 786.64 1111.45 786.28 1109.58 787.64 1109.44 787.9 1111"/>
        <polygon class="st16" points="739.4 1142.56 740.08 1142.68 739.51 1144.68 738.89 1145.17 738.74 1144 738.44 1142.94 739.4 1142.56"/>
        <polygon class="st15" points="740.08 1142.68 739.4 1142.56 739.24 1141.21 739.94 1140.83 741.27 1141.46 740.08 1142.68"/>
        <polygon class="st16" points="740.85 1125.1 739.54 1126.33 739.28 1124.09 740.36 1123.73 740.85 1125.1"/>
        <polygon class="st16" points="767.18 1139.18 768.06 1137.88 768.34 1138.81 767.18 1139.18"/>
        <polygon class="st15" points="751.01 1118.89 751.05 1120.03 749.28 1120.2 749.15 1119.18 749.79 1118.89 751.01 1118.89"/>
        <path class="st16" d="M752.3,1148.55h-1.36c.34-2.35,1.02-2.35,1.36,0"/>
        <path class="st16" d="M751.08,1152.1c-.34,2.35-1.02,2.35-1.36,0h1.36Z"/>
        <polygon class="st22" points="784.59 1106.08 783.59 1106.09 783.4 1104.78 784.35 1104.83 784.59 1106.08"/>
        <path class="st16" d="M790.16,1113.4c0,.38-.31.68-.68.68s-.68-.31-.68-.68.31-.68.68-.68.68.31.68.68"/>
        <path class="st16" d="M752.92,1115.84c0,.38-.31.68-.68.68s-.68-.31-.68-.68.31-.68.68-.68.68.31.68.68"/>
        <path class="st17" d="M784.05,1165.28c0,.38-.31.68-.68.68s-.68-.31-.68-.68.31-.68.68-.68.68.31.68.68"/>
        <polygon class="st16" points="751.01 1118.89 749.79 1118.89 750.4 1117.1 751.01 1118.89"/>
        <path class="st15" d="M748.52,1120.61l.67-.03c.71.36.51,1.53-.23,1.47l-.44-1.44Z"/>
        <polygon class="st15" points="773.53 1138.55 772.28 1138.3 772.64 1137.14 773.63 1137.47 773.53 1138.55"/>
        <polygon class="st15" points="740.47 1129.96 741.11 1129.78 741.91 1130.18 741.58 1131.15 740.19 1130.72 740.47 1129.96"/>
        <path class="st16" d="M757.8,1148.19c0,.38-.31.68-.68.68s-.68-.31-.68-.68.31-.68.68-.68.68.31.68.68"/>
        <path class="st16" d="M773.67,1152.46c0,.38-.31.68-.68.68s-.68-.31-.68-.68.31-.68.68-.68.68.31.68.68"/>
        <polygon class="st15" points="741.19 1128.66 742.48 1127.35 742.48 1128.42 741.19 1128.66"/>
        <path class="st16" d="M775.43,1109.43c0,.17-.14.31-.31.31s-.31-.14-.31-.31.14-.31.31-.31.31.14.31.31"/>
        <polygon class="st15" points="757.62 1118.94 757.59 1118.3 758.37 1118.19 757.62 1118.94"/>
        <path class="st15" d="M773.6,1140.25l.02-.72c.36.22.37.46-.02.72"/>
        <path class="st16" d="M760.17,1105.16c0,.17-.14.31-.31.31s-.31-.14-.31-.31.14-.31.31-.31.31.14.31.31"/>
        <path class="st16" d="M752.24,1106.99c0,.17-.14.31-.31.31s-.31-.14-.31-.31.14-.31.31-.31.31.14.31.31"/>
        <path class="st11" d="M755.51,1154.43c-.5,1.62-1.64,1.63-2.3.12l2.3-.12Z"/>
        <path class="st15" d="M757.01,1119.09c-.16.78-.83,1.56-1.61,1.99l.65-2.2.97.2Z"/>
        <path class="st15" d="M740.64,1139.03l.53-.61-.53.61Z"/>
      </g>
    </g>
  </g>
</svg>